<?xml version="1.0" standalone="no"?>
<!DOCTYPE svg PUBLIC "-//W3C//DTD SVG 20010904//EN"
 "http://www.w3.org/TR/2001/REC-SVG-20010904/DTD/svg10.dtd">
<svg version="1.0" xmlns="http://www.w3.org/2000/svg"
 width="1024.000000pt" height="1024.000000pt" viewBox="0 0 1024.000000 1024.000000"
 preserveAspectRatio="xMidYMid meet">

<g transform="translate(0.000000,1024.000000) scale(0.100000,-0.100000)"
fill="#000000" stroke="none">
<path d="M0 5120 l0 -5120 5120 0 5120 0 0 5120 0 5120 -5120 0 -5120 0 0
-5120z m5192 2424 c15 -8 337 -195 715 -415 379 -221 789 -460 913 -531 381
-221 436 -255 448 -283 9 -19 12 -319 12 -1204 0 -1365 18 -1196 -133 -1284
-1899 -1111 -1969 -1151 -2027 -1152 -54 0 -62 4 -585 309 -498 291 -922 538
-1358 791 -104 60 -195 120 -205 134 -16 24 -17 101 -17 1208 0 1166 0 1182
20 1208 11 15 79 61 150 102 72 42 537 313 1035 603 498 290 914 530 925 533
26 6 73 -2 107 -19z"/>
<path d="M4885 7247 c-127 -74 -507 -295 -845 -492 -338 -196 -681 -396 -762
-443 l-148 -86 0 -1107 c0 -873 3 -1109 13 -1117 6 -5 217 -129 467 -274 250
-146 692 -403 982 -571 l527 -307 990 578 991 577 -3 1113 -2 1114 -155 90
c-455 265 -768 446 -1260 733 -300 175 -550 319 -555 321 -6 3 -114 -56 -240
-129z m416 -1081 c201 -43 370 -167 458 -336 36 -69 81 -206 81 -247 0 -11
-26 -13 -136 -11 l-136 3 -17 55 c-41 131 -116 220 -229 273 -124 58 -312 48
-437 -23 -114 -65 -203 -204 -230 -357 -21 -114 -21 -682 0 -790 39 -206 168
-353 360 -408 81 -24 237 -17 318 15 76 29 172 102 214 164 l33 48 0 189 0
189 -200 0 -200 0 0 120 0 120 336 0 335 0 -3 -322 -3 -323 -32 -68 c-114
-240 -364 -388 -658 -389 -237 -1 -422 76 -577 240 -77 82 -145 209 -180 337
-21 76 -22 98 -22 485 l0 405 26 96 c78 286 270 472 553 534 80 18 264 18 346
1z"/>
</g>
</svg>
